<svg xmlns="http://www.w3.org/2000/svg" viewBox="0 0 295.89 322.12"><defs><style>.cls-1{fill:#f0f0f0;}.cls-2{fill:#2d2e2d;}.cls-3{fill:#fbae17;}.cls-4{fill:#f68b21;}</style></defs><title>Asset 65</title><g id="Layer_2" data-name="Layer 2"><g id="Layer_1-2" data-name="Layer 1"><circle class="cls-1" cx="147.94" cy="174.17" r="147.94"/><ellipse class="cls-2" cx="147.94" cy="174.17" rx="137.48" ry="136.86"/><path class="cls-3" d="M148.39,165.63l31.67-1.76-80.34,93,47.86-74.33q-5,.36-10.13.67l-18.46,1-3.1.14,6.94-8,6.4-7.41,6.23-7.21,6.11-7.08,54.6-63.23Z"/><rect class="cls-1" x="142.42" y="2.5" width="11.04" height="24.06"/><rect class="cls-1" x="255.52" y="49.48" width="11.04" height="24.06" transform="translate(119.95 -166.57) rotate(45)"/><rect class="cls-1" x="131.43" width="33.04" height="5"/><rect class="cls-1" x="253" y="50.54" width="33.04" height="5" transform="translate(116.44 -175.04) rotate(45)"/><polygon class="cls-1" points="43.99 174.17 10.46 172.1 10.46 176.25 43.99 174.17"/><polygon class="cls-1" points="62.99 89.56 51.45 76.5 49.93 78.02 62.99 89.56"/><polygon class="cls-1" points="232.96 89.56 246.02 78.04 244.5 76.52 232.96 89.56"/><polygon class="cls-4" points="268.04 174.18 285.42 175.27 285.42 173.12 268.04 174.18"/><polygon class="cls-1" points="232.73 258.77 244.25 271.83 245.77 270.31 232.73 258.77"/><polygon class="cls-1" points="63.09 258.88 50.03 270.4 51.55 271.92 63.09 258.88"/><polygon class="cls-1" points="147.94 70.84 150.02 37.31 145.87 37.31 147.94 70.84"/><polygon class="cls-1" points="251.9 174.17 285.42 176.25 285.42 172.1 251.9 174.17"/><polygon class="cls-1" points="147.94 277.51 145.87 311.03 150.02 311.03 147.94 277.51"/></g></g></svg>