<svg xmlns="http://www.w3.org/2000/svg" viewBox="0 0 297.36 301.39"><defs><style>.cls-1{fill:#f0f0f0;}.cls-2{fill:#2a2a2a;}.cls-3{fill:#fbae17;}</style></defs><title>Asset 66</title><g id="Layer_2" data-name="Layer 2"><g id="Layer_1-2" data-name="Layer 1"><circle class="cls-1" cx="113.93" cy="113.93" r="113.93"/><circle class="cls-2" cx="113.93" cy="113.93" r="102.42"/><path class="cls-1" d="M174.54,173.42c1.73-1.38,37.59-31,31.07-77.87s-49-65.51-51-66.38a3.74,3.74,0,1,0-3.93,6.28C169,45.35,191.41,62.16,199.12,88,208,118,198.44,151.13,174.54,173.42Z"/><rect class="cls-2" x="174.68" y="220.82" width="123.84" height="38.22" transform="translate(243.47 -96.96) rotate(45.77)"/><rect class="cls-1" x="197.9" y="230.56" width="96.51" height="38.29" transform="translate(253.36 -100.86) rotate(45.77)"/><polygon class="cls-3" points="101.38 116 77.14 116 52.34 157.71 100.81 157.71 88.98 136.85 101.38 116"/><polygon class="cls-3" points="113.22 136.85 137.45 136.85 149.85 116 161.69 136.85 173.52 157.71 125.05 157.71 113.22 136.85"/><polygon class="cls-3" points="114.34 53.44 89.54 95.14 113.78 95.14 125.61 116 138.01 95.14 114.34 53.44"/><path class="cls-1" d="M53.63,54.14C51.89,55.51,15.88,85,22.16,131.85s48.62,65.76,50.69,66.64a3.7,3.7,0,0,0,4-6.26c-18.26-10-40.61-26.91-48.19-52.82C19.85,109.45,29.61,76.31,53.63,54.14Z"/><rect class="cls-1" x="267.26" y="256.33" width="15.89" height="46.38" transform="translate(283.51 -112.65) rotate(45.77)"/></g></g></svg>