<svg xmlns="http://www.w3.org/2000/svg" viewBox="0 0 313.59 241.55"><defs><style>.cls-1{fill:#2a2a2a;}.cls-2{fill:#f0f0f0;}.cls-3{fill:#fff;}.cls-4{fill:#fbae17;}</style></defs><title>Asset 70</title><g id="Layer_2" data-name="Layer 2"><g id="Layer_1-2" data-name="Layer 1"><path class="cls-1" d="M156.8,13.21c61,0,117.42,42.08,147,109.67-29.55,67.58-86,109.67-147,109.67S39.38,190.46,9.82,122.88c29.56-67.59,86-109.67,147-109.67m0-9C92.09,4.21,32.61,48.3,1.58,119.27L0,122.88l1.58,3.6c31,71,90.51,115.07,155.22,115.07S281,197.46,312,126.48l1.57-3.6L312,119.27C281,48.3,221.5,4.21,156.8,4.21Z"/><polygon class="cls-2" points="36.39 0 35.17 1.11 34.71 0.64 36.39 0"/><ellipse class="cls-3" cx="156.8" cy="122.88" rx="146.97" ry="109.67"/><path class="cls-1" d="M178,45.58v64.49l-.76-.43L101.56,65.79A80,80,0,0,1,178,45.58Z"/><path class="cls-1" d="M131.91,114.8v83.84a80.16,80.16,0,0,1-51.4-54.28Z"/><path class="cls-1" d="M237.49,122.87A79.76,79.76,0,0,1,211,182.29l-51.92-29.93,21.63-12.49v0l55.32-32A80.14,80.14,0,0,1,237.49,122.87Z"/><polygon class="cls-4" points="148.76 120.94 133.04 120.94 116.96 147.99 148.39 147.99 140.72 134.47 148.76 120.94"/><polygon class="cls-4" points="156.43 134.47 172.15 134.47 180.19 120.94 187.86 134.47 195.53 147.99 164.1 147.99 156.43 134.47"/><polygon class="cls-4" points="157.16 80.38 141.08 107.42 156.8 107.42 164.47 120.94 172.51 107.42 157.16 80.38"/><path class="cls-1" d="M153.6,99.14,79.79,141.57A80.08,80.08,0,0,1,99.56,67.83Z"/><path class="cls-1" d="M235.48,105l-54.73,31.66V46.36A80.05,80.05,0,0,1,235.48,105Z"/><path class="cls-1" d="M208.83,184.21a80.07,80.07,0,0,1-74.15,15.3v-58L156.33,154h0Z"/></g></g></svg>