<svg xmlns="http://www.w3.org/2000/svg" viewBox="0 0 256.13 201.95"><defs><style>.cls-1{fill:#f0f0f0;}.cls-2{fill:#fbae17;}</style></defs><title>Asset 25</title><g id="Layer_2" data-name="Layer 2"><g id="Layer_1-2" data-name="Layer 1"><path class="cls-1" d="M182.77,196c5.51,1.56,10.64.58,15.41,1.76l0,1.09a21.44,21.44,0,0,1-3.95,1.23c-6.08.67-12.17,1.67-18.25,1.71-34.87.18-69.74.15-104.6.1-3.93,0-7.87-.55-11.79-.95a19.71,19.71,0,0,1-3.3-.9v-1l11.41-1.93c-1.28-1.22-2.09-2-2.86-2.72-7.2-7.16-15.78-12.42-24.35-17.68a11.57,11.57,0,0,1-1.76-1.27c-2-1.92-4.57-3.57-5.93-5.9s-1.45-5.22-2.23-8.39c-2.79,1-6,2.06-9.09,3.46-1.56.71-2.85,1.46-4.41.22-.23-.18-.78-.35-.85-.26-2.52,3.13-5.62-.06-8.47.76-2.28.66-6.49-3.1-7.07-5.52-.3-1.22-.5-2.47-.74-3.71l3.74.18a21.2,21.2,0,0,1,1.43-4.88A7.6,7.6,0,0,1,8.52,148c5.2-2,10.57-3.37,16.27-2.17,4.54,1,8.2-1.75,12.13-3.2s6.94-4.51,9.95-7.46a56.27,56.27,0,0,1,8.59-6.87,15.24,15.24,0,0,0,5.91-6.47c2.54-5.56,5-11.15,7.77-16.6,1-1.93,0-3.52.08-5.26a59.48,59.48,0,0,1,1.06-11.49,28.64,28.64,0,0,1,5.86-12.58,18.71,18.71,0,0,1,10.4-6.6c7.8-1.61,14.52-5.56,21.21-9.6,1.07-.65,2.35-1,3.36-1.68a3.28,3.28,0,0,0,1.33-2c.33-2.87.43-5.77.65-8.66.07-.91.22-1.82.38-3.08l3,1.95c-4.1-5.88-3.1-12.66-5.19-18.6l-.85.11c.34,2.78.69,5.56,1,8.37-2.26.31-3.4-.69-3.57-2.54-.24-2.68-1.71-5.51.79-8,.39-.38.25-1.38.22-2.1-.08-2.57-.19-5.15-.32-7.72A15,15,0,0,1,120.44.65C126.81-.55,133-.46,138.25,4.09c3.32,2.85,5.49,6.28,5.38,10.84,0,.53.11,2.07-.18,6.51-.07,1-.17,2.51-.33,4.27a3.12,3.12,0,0,1,1.26,1c1.32,2-.23,5.26-1.44,7.86-.36.76-.69,1.36-.91,1.76-1.26.7-1.76.66-2,.47-.47-.42.17-1.7.77-4a27.11,27.11,0,0,0,.73-3.8l-.88-.16a35.82,35.82,0,0,1-6.74,17.48l3.91-3.12a106.27,106.27,0,0,1,.44,11.77,2.81,2.81,0,0,0,.53,2.1,2,2,0,0,0,1.48.47c.63,0,1.28.61,1.89,1,7,4.48,14.08,8.72,22.24,10.79A18.8,18.8,0,0,1,177.93,81c2.32,5.55,4.37,11.15,4.19,17.21a27.53,27.53,0,0,0,3.33,13.88c1.93,3.71,3.4,7.67,5.53,11.25a16.94,16.94,0,0,0,5.19,5.43,42.94,42.94,0,0,1,9.2,7.69c4.42,5,10.53,7.2,16.77,9a3.35,3.35,0,0,0,1.66-.06c6.14-1.47,12.08-.28,18.16.8,4.91.86,7.69,2.89,8.18,8,.21,2.13,1.11,4,4,3.66.61-.07,1.34.88,2,1.37a10.35,10.35,0,0,1-1.72,1.34c-2.64,1.31-5.21,2.94-8,3.68-3.06.82-6.34.8-9.53,1.13-.94.09-1.89.12-2.84.15a10.75,10.75,0,0,1-3.54,0c-2.35-.81-4.57-1.95-6.85-3-1.19-.52-2-.4-2.21,1.12-1,10-7,16.23-15.6,20.47q-10.17,5-20.3,10.12C184.77,194.64,184.09,195.17,182.77,196ZM192.3,151c-.87-.63-1.09-.89-1.37-1a24.76,24.76,0,0,1-14-11.57c-4.61-7.89-8.7-16.1-13-24.16a18.23,18.23,0,0,0-1.2-1.67c-1.19,3.33-2.21,6.16-3.2,9-1.13,3.25-3,6.47-3.2,9.78-.43,7.22,0,14.48.08,21.72,0,1.92.89,2.81,2.78,3.26,2.88.68,5.66,1.76,8.52,2.55a4.54,4.54,0,0,0,2.53,0c5.57-1.85,11.1-3.78,16.63-5.73C188.49,152.59,190.12,151.85,192.3,151Zm-132.85-.31c.44.53.55.8.74.88,4.48,2,8.9,4.15,13.5,5.82a18,18,0,0,0,7.68,1.16c3.4-.33,6.71-1.61,10.08-2.36,1.58-.36,2-1.22,2-2.73a73.8,73.8,0,0,1,.81-10.09c.77-4.33,1.24-8.58-.08-12.87-.75-2.46-1.35-5-2.1-7.43-1-3.26-2.07-6.5-3.23-10.13a17.84,17.84,0,0,0-1.22,1.64C83.76,121.68,80.12,129,76,135.93c-3.52,5.95-8.15,11-14.79,13.7A16.53,16.53,0,0,0,59.45,150.66Zm180,1.26-.51,1a42.37,42.37,0,0,0,3.8,2.9c.45.27,1.3-.12,2-.21-.18-.93-.11-2.45-.6-2.67A22.89,22.89,0,0,0,239.49,151.92ZM12.66,154.43v-1c-.82-.12-2-.63-2.37-.28-.64.59-.78,1.73-1.13,2.64l.67.42Z"/><polygon class="cls-2" points="125.54 85.58 107.77 116.37 143.32 116.37 125.54 85.58"/></g></g></svg>