<svg xmlns="http://www.w3.org/2000/svg" viewBox="0 0 298.2 312.6"><defs><style>.cls-1{fill:#2a2a2a;}.cls-2{fill:#f0f0f0;}.cls-3{fill:#faad17;}</style></defs><title>Asset 67</title><g id="Layer_2" data-name="Layer 2"><g id="Layer_1-2" data-name="Layer 1"><path class="cls-1" d="M42.08,71.1a212.92,212.92,0,0,0,64-13A212.67,212.67,0,0,0,158.5,29.7a213.25,213.25,0,0,0,51,27.83A212.79,212.79,0,0,0,274.94,71.1c3.47,12.6,19,74.07-15.77,137.81-32.64,59.81-87.36,80.88-100.67,85.59-13.31-4.71-68-25.79-100.66-85.59C23.06,145.17,38.6,83.7,42.08,71.1Z"/><path class="cls-2" d="M290.85,58.66a242.08,242.08,0,0,1-74.38-15.43,241.72,241.72,0,0,1-58-31.63A241.67,241.67,0,0,1,98.94,43.83,241.92,241.92,0,0,1,26.16,58.66C22.21,73,4.55,142.86,44.08,215.31c37.1,68,99.29,91.93,114.42,97.29,15.12-5.36,77.33-29.31,114.43-97.29C312.47,142.86,294.8,73,290.85,58.66ZM259.17,208.91c-32.64,59.81-87.36,80.88-100.67,85.59-13.31-4.71-68-25.79-100.66-85.59C23.06,145.17,38.6,83.7,42.08,71.1a212.92,212.92,0,0,0,64-13A212.67,212.67,0,0,0,158.5,29.7a213.25,213.25,0,0,0,51,27.83A212.79,212.79,0,0,0,274.94,71.1C278.41,83.7,294,145.17,259.17,208.91Z"/><polygon class="cls-3" points="119.02 59.51 81.29 81.29 59.51 119.02 37.73 81.29 0 59.51 37.73 37.73 59.51 0 81.29 37.73 119.02 59.51"/><polygon class="cls-3" points="111.68 125.49 101.45 131.4 95.55 141.62 89.64 131.4 79.41 125.49 89.64 119.58 95.55 109.35 101.45 119.58 111.68 125.49"/><polygon class="cls-3" points="127.08 88.69 121.97 91.64 119.02 96.75 116.06 91.64 110.95 88.69 116.06 85.73 119.02 80.62 121.97 85.73 127.08 88.69"/><polygon class="cls-2" points="204.31 248.07 221.5 267.53 223.77 265.27 204.31 248.07"/><polygon class="cls-2" points="199.49 231.99 222.12 257.6 225.11 254.62 199.49 231.99"/></g></g></svg>