<svg xmlns="http://www.w3.org/2000/svg" viewBox="0 0 186.17 210.02"><defs><style>.cls-1{fill:#f0f0f0;}</style></defs><title>Asset 22</title><g id="Layer_2" data-name="Layer 2"><g id="Layer_1-2" data-name="Layer 1"><polygon class="cls-1" points="177.1 30.16 176.12 33.43 186.16 48.85 177.1 30.16"/><polygon class="cls-1" points="169.74 29.66 168.76 32.93 178.8 48.34 169.74 29.66"/><polygon class="cls-1" points="168.22 35.9 167.25 39.16 177.29 54.58 168.22 35.9"/><polygon class="cls-1" points="165.5 26.55 164.53 29.82 174.57 45.24 165.5 26.55"/><polygon class="cls-1" points="169.74 21.61 168.76 24.88 178.8 40.3 169.74 21.61"/><path class="cls-1" d="M17.37,199.22,4,206.28,5.37,206l-3.51,2.21L4,207.53l-4,2.4,1.94.09,2.58-.9,2.23.81,21.7-9,5.73,1.92,4,1.36L40.8,204,31.74,198Z"/><path class="cls-1" d="M144.11,68.4h0l0,.06Z"/><path class="cls-1" d="M178.87,34.9c-1.73-6.64-3.22-13.48-6.12-19.63C170.28,10,166.21,5.5,162.43,1c-.87-1-3.76-1.3-5.11-.65-.93.44-1.27,3.16-1,4.72.37,2.32,1.48,3,2.34,5.27a12.41,12.41,0,0,1,.55,6.13c2.12,4.8,2.67,6.52,2.44,6.64-.47.25-3.54-6.11-5.8-5.57-1.05.24-1.49,1.87-1.52,2-.6,2.33,1.55,4.39,1.18,4.74s-2.92-2.25-5.1-3.41c-4.16-2.21-7.48.79-16.95,3.4,0,0-12.11,3.34-23.41,2.81-1-.05-1.9-.09-3.8-.16-3.29-.14-3.79-.14-4.43-.13a20.39,20.39,0,0,0-4.67.46,15.14,15.14,0,0,0-4.91,2.23c-3.2,2.08-2.55,2.92-6.12,5.64l-.92.7c-1.41,1.09-2.47,2-3.77,3.06-.88.73-2.15,1.76-3.77,3l5,1.11c-3.16.1-5.45.17-6.24.18-.19,0-.53,0-1,0a9.37,9.37,0,0,1-2.8.08c-4.93-.49-9.92-1.4-14.82-1.09-5.18.33-10.11,1.41-13.49,4.86a11.36,11.36,0,0,0-3.49,6.21,9.37,9.37,0,0,0-.11,1.31,3.06,3.06,0,0,1-4.46,3.2A4.83,4.83,0,0,0,39.1,55.6c.91-1.7-.08-3.16-2.57-10.42a34.84,34.84,0,0,0-2.26-5.79c-.83-1.57-2.19-2.84-3.12-4.37a19.06,19.06,0,0,0-4.69-5.32,17.87,17.87,0,0,0-6.55-3.16C13,25,3.65,29.42,1,36.91c-1.83,5.21.09,10.39,1.21,13.42,1,2.71,2.54,5.36,2.85,5.24s-.26-1.19.17-1.49c.7-.51,3.06,1.63,3,1.75s-1-.91-2.14-.68a1.9,1.9,0,0,0-1.45,1.3c-.06.21-.13.67.63,2a6.32,6.32,0,0,0,2.75,3c.73.32,1.82.57,2.15.16s0-.75.19-.9.72.36,1.4.67c.24.11,1.09.49,2.13.88,3.26,1.22,4.46,1.25,6.28,2.39,2,1.26,2.62,2.94-.57,3.93a8,8,0,0,0-3.37,2.08c-9.06,9.93-9.36,22.42-9.38,34.7,0,5.17,2.08,12.51,2.86,18.78a57.39,57.39,0,0,1,.93,7.36c0,1.5-.14,2.18.37,2.74,1.77,2,8.34-1,8.44-.73s-3.7,1.07-4.32,3.41a3.85,3.85,0,0,0,.1,1.77c.15,3.83.33,11.06,1.13,20.62.11,1.24.95,6.18,2.65,16.05,1.62,9.41,2.9,16.31-.86,22.24-.38.59-.72,1-.94,1.32-.43.36-.92.74-1.46,1.11s-1,.62-1.39.88l2.77,1.18,2.17.26,2.16.25,1.68.22a13.25,13.25,0,0,1,4.22-.73c.41,0,.45,0,1.12,0,.93,0,1.53,0,1.8,0,2,0,2.76.92,4.8.83a6.44,6.44,0,0,0,1.76-.34,25.8,25.8,0,0,0-1.49-2.13c-.49-.63-.69-.78-.93-1.13a29.28,29.28,0,0,1-2.31-5.18,20.15,20.15,0,0,1-.83-2.17c-.76-8.09-1.8-16.18-2-24.28-.12-6.45,0-11.06.18-14.61.19-3.77.5-6.35.69-11.38.14-3.81.15-6.93.13-9-4.48.2-5.65.22-5.65.19a14.49,14.49,0,0,0,7.72-2.19,4.5,4.5,0,0,0,1.73-1.63c.72-1.43.07-2.94-1.56-7.87-1-3-1.27-4-.83-4.38s1.57-.16,3.1,1c6.81,5.15,10.7,7,11.93,8.75A3.17,3.17,0,0,0,48.6,128c1.84.33,3.78-2,3.85-2s-2.29,1.67-2.92,4.15a9.94,9.94,0,0,0-.07,2.37c-1.09,8.61-1.21,17,7.83,22.11.47.27.75.89,1.23,1.09,3.07,1.33,6.07,3.12,9.29,3.75,5.67,1.11,11.51,1.34,17.24,2.22,6.27,1,12.52,2.08,18.71,3.44a22.09,22.09,0,0,1,7.43,3c4.3,2.89,8.57,3.21,13.38,1.59a8.72,8.72,0,0,1,5.2.18c1.77.61,3.19,2.18,4.91,3.05,4.52,2.3,9,4.6,13.73,6.54a4.2,4.2,0,0,0,3.84-1.24c2.57-4.16-.61-14-4.87-16.49a8.42,8.42,0,0,1-3.29-3.43c-3.35-7.28-6.11-8.58-13.59-5.9a5.46,5.46,0,0,1-1-1.2c-1.84-4.4-4.67-7.25-9.85-7.54-1.93-.11-3.72-1.83-5.69-2.33a55.66,55.66,0,0,0-7.58-1.15,36.66,36.66,0,0,1-4.3-1c-7.21-1.95-9.8-4.4-13-3.17-.39.15-.42.21-1.58.71-2.65,1.16-4.91,1.87-5,1.69s2.2-.72,3.27-2.71c.53-1,.31-1.73.57-2.55,1.19-3.86,4-3.7,5.26-6.71,1.31-3.25,0-8.47-.89-10.4a2.64,2.64,0,0,1,1.12-3.86c1.2-.8,2.13-2.42,3.27-5.94,1.46-4.5,2.19-6.75,2.45-8,1.58-7.95,2.36-6.24,4.11-16.66A113.32,113.32,0,0,1,104.43,70c.74-2.74,1.85-6.5,3.47-10.93l1.5-1c.67-.2,1.41-.39,2.22-.55.61-.12,1.19-.21,1.73-.27a33.84,33.84,0,0,1,6.73.06c.61.07,2.3.28,3.15.31l.51,0a5.61,5.61,0,0,1,1.11.27,14.11,14.11,0,0,1,1.93.93,14.31,14.31,0,0,1,1.91,1.32,25.9,25.9,0,0,1,2.7,3,25,25,0,0,0,2.31,2.14l.61.52h0l.32.26,1.3,1c1,.28,2,.56,3.08.81.79.19,1.55.35,2.3.5.25-.21.53-.44.85-.66a11.1,11.1,0,0,1,1.06-.66l-.5.22-.32.15c-.94.42-1.39.71-1.35.9s1.07.29,3,.11h0a9.56,9.56,0,0,0,4.39-3.05,9.69,9.69,0,0,0,2-5.19,7.65,7.65,0,0,0-.62-3.62,7.56,7.56,0,0,0-2.28-2.95L136.92,52.3l-.3-.1-.08,0c-.53-.19-.85-.36-2.42-.91-1.09-.38-2-.68-2.79-.92a37.05,37.05,0,0,1-6.86-1.17l-.78-.22-7.07-.23a55,55,0,0,0,8.48-.51c9.53-1.34,12-3.83,20.35-4.71a54.15,54.15,0,0,1,8.61-.15c4.22.2,7.17-1.5,10.7-3.56,3.11-1.81,8-.42,12-1C177.67,38.66,179.16,36,178.87,34.9ZM76.28,60.78a50.8,50.8,0,0,0-4.17,15.79A26.81,26.81,0,0,0,71,79.91a26.12,26.12,0,0,0-.71,7.51c-.55-3.22-1.12-5.8-1.54-7.53-.94-3.92-2.23-8.29-3-12.6-.18-1-.35-2-.35-2-.26-1.78-.51-3.57-.76-5.35,2-.14,4-.39,5.93-.46.2,0,1,0,2.17,0,1.57,0,2,0,2.43,0a20,20,0,0,1,4,.48Z"/></g></g></svg>