<svg xmlns="http://www.w3.org/2000/svg" viewBox="0 0 253.67 344.72"><defs><style>.cls-1{fill:#f0f0f0;}.cls-2{fill:#2a2a2a;}.cls-3{fill:#faad17;}.cls-4{fill:#fbae17;}</style></defs><title>Asset 71</title><g id="Layer_2" data-name="Layer 2"><g id="Layer_1-2" data-name="Layer 1"><polygon class="cls-1" points="89.22 279.76 84.72 275.26 84.72 249.27 89.22 244.77 177.07 244.77 181.57 249.27 181.57 275.26 177.07 279.76 89.22 279.76"/><path class="cls-2" d="M177.07,249.27v26H89.22v-26h87.85m0-9H89.22l-9,9v26l9,9h87.85l9-9v-26l-9-9Z"/><polygon class="cls-1" points="89.23 312.68 84.73 308.18 84.73 282.19 89.23 277.69 177.07 277.69 181.57 282.19 181.57 308.18 177.07 312.68 89.23 312.68"/><path class="cls-2" d="M177.07,282.19v26H89.23v-26h87.84m0-9H89.23l-9,9v26l9,9h87.84l9-9v-26l-9-9Z"/><polygon class="cls-1" points="108.14 340.22 103.64 335.72 103.64 315.11 108.14 310.61 158.15 310.61 162.65 315.11 162.65 335.72 158.15 340.22 108.14 340.22"/><path class="cls-2" d="M158.15,315.11v20.61h-50V315.11h50m0-9h-50l-9,9v20.61l9,9h50l9-9V315.11l-9-9Z"/><circle class="cls-1" cx="133.15" cy="149.7" r="116.02"/><path class="cls-2" d="M133.15,38.18A111.52,111.52,0,1,1,21.63,149.7,111.52,111.52,0,0,1,133.15,38.18m0-9A120.52,120.52,0,0,0,47.93,234.92,120.52,120.52,0,1,0,218.37,64.48a119.76,119.76,0,0,0-85.22-35.3Z"/><rect class="cls-1" x="89.22" y="249.27" width="87.85" height="25.99"/><path class="cls-1" d="M177.07,282.19v26H89.22v-26h46.07c0,.52,0,1,0,1.55l.24-1.55Z"/><rect class="cls-1" x="108.15" y="315.11" width="50" height="20.61"/><circle class="cls-1" cx="133.15" cy="149.7" r="111.52"/><polygon class="cls-3" points="105.84 52.93 72.29 72.3 52.92 105.85 33.55 72.3 0 52.93 33.55 33.55 52.92 0 72.29 33.55 105.84 52.93"/><polygon class="cls-3" points="52.92 125.65 39.11 133.62 31.14 147.43 23.17 133.62 9.36 125.65 23.17 117.68 31.14 103.87 39.11 117.68 52.92 125.65"/><polygon class="cls-3" points="115.47 92.09 106.28 97.39 100.98 106.58 95.67 97.39 86.48 92.09 95.67 86.78 100.98 77.59 106.28 86.78 115.47 92.09"/><path class="cls-4" d="M149.77,191.2q-4.56,29-9.1,58.07-.93,5.89-1.85,11.8l-2.22,14.19h-1.2l.21-14.07.18-11.92q.26-16.44.5-32.9c-2.07,1.51-4.17,3-6.28,4.52L118.47,229l-2,1.34,1.26-8,1.15-7.36,1.12-7.18,1.11-7.05L131,137.84l-1,67.25Z"/></g></g></svg>